{"title":"Sexy South Indian couple home made/Sexy South Indian couple home","uid":10890195,"size":176730904,"categoryP":"porn","categoryS":"other","magnet":"?xt=urn:btih:2c164974aecd9b29bc38a6268df7f82128eee75c&amp;dn=Sexy+South+Indian+couple+home+made%2FSexy+South+Indian+couple+home&amp;tr=udp%3A%2F%2Ftracker.openbittorrent.com%3A80&amp;tr=udp%3A%2F%2Fopen.demonii.com%3A1337&amp;tr=udp%3A%2F%2Ftracker.coppersurfer.tk%3A6969&amp;tr=udp%3A%2F%2Fexodus.desync.com%3A6969","seeders":2,"leechers":0,"uploader":"TomcatX","files":1,"time":1409095179,"description":"\nGeneral\nComplete name : Sexy South Indian couple home made/Sexy South Indian couple home made.mpg\nFormat : MPEG-PS\nFile size : 169 MiB\nDuration : 16mn 47s\nOverall bit rate : 1 404 Kbps\n\nVideo\nID : 224 (0xE0)\nFormat : MPEG Video\nFormat version : Version 1\nFormat settings, BVOP : No\nFormat settings, Matrix : Default\nDuration : 16mn 47s\nBit rate : 1 150 Kbps\nWidth : 352 pixels\nHeight : 288 pixels\nDisplay aspect ratio : 4:3\nFrame rate : 25.000 fps\nStandard : PAL\nColor space : YUV\nBit depth : 8 bits\nScan type : Progressive\nCompression mode : Lossy\nBits/(Pixel*Frame) : 0.454\nStream size : 138 MiB (82%)\n\nAudio\nID : 192 (0xC0)\nFormat : MPEG Audio\nFormat version : Version 1\nFormat profile : Layer 2\nDuration : 16mn 46s\nBit rate mode : Constant\nBit rate : 224 Kbps\nChannel(s) : 2 channels\nSampling rate : 44.1 KHz\nCompression mode : Lossy\nStream size : 26.9 MiB (16%)\n\nScreen : &lt;a href=&quot;\nhttp://imgextra.biz/viewer.php?file=gr91sqtgxz3nftxlcmrm.jpg&quot; rel=&quot;nofollow&quot; target=&quot;_NEW&quot;&gt;\nhttp://imgextra.biz/viewer.php?file=gr91sqtgxz3nftxlcmrm.jpg&lt;/a&gt; &lt;a href=&quot;\nhttp://imgextra.biz/viewer.php?file=w2u1xs5v3jm30tverjb8.jpg&quot; rel=&quot;nofollow&quot; target=&quot;_NEW&quot;&gt;\nhttp://imgextra.biz/viewer.php?file=w2u1xs5v3jm30tverjb8.jpg&lt;/a&gt;","torrent":{"xt":"urn:btih:2c164974aecd9b29bc38a6268df7f82128eee75c","amp;dn":"Sexy+South+Indian+couple+home+made%2FSexy+South+Indian+couple+home","amp;tr":["udp%3A%2F%2Ftracker.openbittorrent.com%3A80","udp%3A%2F%2Fopen.demonii.com%3A1337","udp%3A%2F%2Ftracker.coppersurfer.tk%3A6969","udp%3A%2F%2Fexodus.desync.com%3A6969"],"infoHash":"2c164974aecd9b29bc38a6268df7f82128eee75c","infoHashBuffer":{"type":"Buffer","data":[44,22,73,116,174,205,155,41,188,56,166,38,141,247,248,33,40,238,231,92]},"announce":[],"urlList":[]}}